<?xml version="1.0"?><svg xmlns="http://www.w3.org/2000/svg" width="815.912" height="211" viewBox="14.5 14.5 815.912 211" role="img" aria-labelledby="t" xmlns:c2pa="http://c2pa.org/manifest"><metadata><c2pa:manifest>AAAWgmp1bWIAAAAeanVtZGMycGEAEQAQgAAAqgA4m3EDYzJwYQAAABZcanVtYgAAAEdqdW1kYzJtYQARABCAAACqADibcQN1cm46YzJwYTpjZWNmYWVmYS00MWNkLTRkM2UtOWY3YS1mODIwNmI0OTM2ODYAAAADl2p1bWIAAAApanVtZGMyYXMAEQAQgAAAqgA4m3EDYzJwYS5hc3NlcnRpb25zAAAAALxqdW1iAAAARGp1bWRjYm9yABEAEIAAAKoAOJtxE2MycGEuaW5ncmVkaWVudC52MwAAAAAYYzJzaIap8ZVb+OPkJsMNz7cr3AAAAABwY2JvcqNpZGM6Zm9ybWF0bWltYWdlL3N2Zyt4bWxqaW5zdGFuY2VJRHgseG1wOmlpZDpkZDBlY2Q1ZS03NjIzLTQ0YmYtODk1Yi02ZGIxMzY4NDhlMTJscmVsYXRpb25zaGlwaHBhcmVudE9mAAAB4mp1bWIAAABBanVtZGNib3IAEQAQgAAAqgA4m3ETYzJwYS5hY3Rpb25zLnYyAAAAABhjMnNo183fdoaj8uN9r3WcHLfGLAAAAZljYm9yomdhY3Rpb25zgqJmYWN0aW9ua2MycGEub3BlbmVkanBhcmFtZXRlcnOha2luZ3JlZGllbnRzgaJjdXJseC1zZWxmI2p1bWJmPWMycGEuYXNzZXJ0aW9ucy9jMnBhLmluZ3JlZGllbnQudjNkaGFzaFggR3VhEFD5Ghr3dRWS5xqeFfKkEsneenBNDH/c4j18uSakZmFjdGlvbngdY29tLmFudGhyb3BpYy5jbGF1ZGUucHJvdmlkZWRqcGFyYW1ldGVyc6F4H2NvbS5hbnRocm9waWMub3JpZ2luLWNvbmZpZGVuY2VndW5rbm93bmtkZXNjcmlwdGlvbnhmQ2xhdWRlIHByb3ZpZGVkIHRoaXMgZmlsZSBhdCB0aGUgcmVxdWVzdCBvZiBhIHVzZXIgYW5kIG1heSBoYXZlIGNyZWF0ZWQgb3IgbW9kaWZpZWQgdGhlIGZpbGUgY29udGVudHMubXNvZnR3YXJlQWdlbnShZG5hbWVmQ2xhdWRlcmFsbEFjdGlvbnNJbmNsdWRlZPUAAADIanVtYgAAAEBqdW1kY2JvcgARABCAAACqADibcRNjMnBhLmhhc2guZGF0YQAAAAAYYzJzaGDeILrbGJlG3q5TfGicsk0AAACAY2JvcqVjYWxnZnNoYTI1NmNwYWRNAAAAAAAAAAAAAAAAAGRoYXNoWCCQiX2QJq0L/0KLqME+X+Dd+Pa7vErEBFhkXvozOspGgmRuYW1lbmp1bWJmIG1hbmlmZXN0amV4Y2x1c2lvbnOBomVzdGFydBjYZmxlbmd0aBkeBAAAAj5qdW1iAAAAJ2p1bWRjMmNsABEAEIAAAKoAOJtxA2MycGEuY2xhaW0udjIAAAACD2Nib3KlY2FsZ2ZzaGEyNTZpc2lnbmF0dXJleE1zZWxmI2p1bWJmPS9jMnBhL3VybjpjMnBhOmNlY2ZhZWZhLTQxY2QtNGQzZS05ZjdhLWY4MjA2YjQ5MzY4Ni9jMnBhLnNpZ25hdHVyZWppbnN0YW5jZUlEeCx4bXA6aWlkOmQ2NWQ0YTU4LWVjOTItNGE2NC1hYmYzLWRlYmMxMmQwMDRmZnJjcmVhdGVkX2Fzc2VydGlvbnODomN1cmx4LXNlbGYjanVtYmY9YzJwYS5hc3NlcnRpb25zL2MycGEuaW5ncmVkaWVudC52M2RoYXNoWCBHdWEQUPkaGvd1FZLnGp4V8qQSyd56cE0Mf9ziPXy5JqJjdXJseCpzZWxmI2p1bWJmPWMycGEuYXNzZXJ0aW9ucy9jMnBhLmFjdGlvbnMudjJkaGFzaFggzT0ejzY5tiK9PkOUSTLNaArhCDqiZks+GWI51PSkbV6iY3VybHgpc2VsZiNqdW1iZj1jMnBhLmFzc2VydGlvbnMvYzJwYS5oYXNoLmRhdGFkaGFzaFggxpSb/OMFaYUREV2Cm+jSQ5vy5KT8KKU9gXwsrLnr1ex0Y2xhaW1fZ2VuZXJhdG9yX2luZm+jZG5hbWVvQW50aHJvcGljIEZpbGVzZ3ZlcnNpb25lMS4wLjBrc3BlY1ZlcnNpb25lMi40LjAAABA4anVtYgAAAChqdW1kYzJjcwARABCAAACqADibcQNjMnBhLnNpZ25hdHVyZQAAABAIY2JvctKEWQISogEmGCFZAgowggIGMIIBjaADAgECAhRA5aAK7sI50L64g/oGQgU9Z1UTADAKBggqhkjOPQQDAzBJMRcwFQYDVQQKEw5BbnRocm9waWMsIFBCQzEuMCwGA1UEAxMlQW50aHJvcGljIENvbnRlbnQgQ3JlZGVudGlhbHMgUm9vdCBDQTAeFw0yNjA4MDcxODQzNTZaFw0yODA4MDYxOTQzNTZaMEQxFzAVBgNVBAoTDkFudGhyb3BpYywgUEJDMSkwJwYDVQQDEyBBbnRocm9waWMgQ2xhdWRlIENvbnRlbnQgU2lnbmluZzBZMBMGByqGSM49AgEGCCqGSM49AwEHA0IABJh6CmvLUBgFFNU0vUKlOVtE6djd17L5SuwX0LemFisBM3dkd/3cyjxFA3Qo5S46fX0/ihY0VZ7mfb9KF703t5OjWDBWMA4GA1UdDwEB/wQEAwIHgDAVBgNVHSUEDjAMBgorBgEEAYPoXgIBMAwGA1UdEwEB/wQCMAAwHwYDVR0jBBgwFoAUzlHiBIFOZFsj+OPEz5o+nMHXXMIwCgYIKoZIzj0EAwMDZwAwZAIwMXMdFJ4BetLLVY7ORuE9noqbbAZOZn/aArXyTwFAZfKrPzxF2vPoJNf1+UCdg1XGAjBwX1zd9WGqYkqmL5SFqw1QySjr1zJfpJM9+1rdDwSPLMOPOjKuiXjoU/pUUeG9RwmhY3BhZFkNngAAAAAAAAAAAAAAAAAAAAAAAAAAAAAAAAAAAAAAAAAAAAAAAAAAAAAAAAAAAAAAAAAAAAAAAAAAAAAAAAAAAAAAAAAAAAAAAAAAAAAAAAAAAAAAAAAAAAAAAAAAAAAAAAAAAAAAAAAAAAAAAAAAAAAAAAAAAAAAAAAAAAAAAAAAAAAAAAAAAAAAAAAAAAAAAAAAAAAAAAAAAAAAAAAAAAAAAAAAAAAAAAAAAAAAAAAAAAAAAAAAAAAAAAAAAAAAAAAAAAAAAAAAAAAAAAAAAAAAAAAAAAAAAAAAAAAAAAAAAAAAAAAAAAAAAAAAAAAAAAAAAAAAAAAAAAAAAAAAAAAAAAAAAAAAAAAAAAAAAAAAAAAAAAAAAAAAAAAAAAAAAAAAAAAAAAAAAAAAAAAAAAAAAAAAAAAAAAAAAAAAAAAAAAAAAAAAAAAAAAAAAAAAAAAAAAAAAAAAAAAAAAAAAAAAAAAAAAAAAAAAAAAAAAAAAAAAAAAAAAAAAAAAAAAAAAAAAAAAAAAAAAAAAAAAAAAAAAAAAAAAAAAAAAAAAAAAAAAAAAAAAAAAAAAAAAAAAAAAAAAAAAAAAAAAAAAAAAAAAAAAAAAAAAAAAAAAAAAAAAAAAAAAAAAAAAAAAAAAAAAAAAAAAAAAAAAAAAAAAAAAAAAAAAAAAAAAAAAAAAAAAAAAAAAAAAAAAAAAAAAAAAAAAAAAAAAAAAAAAAAAAAAAAAAAAAAAAAAAAAAAAAAAAAAAAAAAAAAAAAAAAAAAAAAAAAAAAAAAAAAAAAAAAAAAAAAAAAAAAAAAAAAAAAAAAAAAAAAAAAAAAAAAAAAAAAAAAAAAAAAAAAAAAAAAAAAAAAAAAAAAAAAAAAAAAAAAAAAAAAAAAAAAAAAAAAAAAAAAAAAAAAAAAAAAAAAAAAAAAAAAAAAAAAAAAAAAAAAAAAAAAAAAAAAAAAAAAAAAAAAAAAAAAAAAAAAAAAAAAAAAAAAAAAAAAAAAAAAAAAAAAAAAAAAAAAAAAAAAAAAAAAAAAAAAAAAAAAAAAAAAAAAAAAAAAAAAAAAAAAAAAAAAAAAAAAAAAAAAAAAAAAAAAAAAAAAAAAAAAAAAAAAAAAAAAAAAAAAAAAAAAAAAAAAAAAAAAAAAAAAAAAAAAAAAAAAAAAAAAAAAAAAAAAAAAAAAAAAAAAAAAAAAAAAAAAAAAAAAAAAAAAAAAAAAAAAAAAAAAAAAAAAAAAAAAAAAAAAAAAAAAAAAAAAAAAAAAAAAAAAAAAAAAAAAAAAAAAAAAAAAAAAAAAAAAAAAAAAAAAAAAAAAAAAAAAAAAAAAAAAAAAAAAAAAAAAAAAAAAAAAAAAAAAAAAAAAAAAAAAAAAAAAAAAAAAAAAAAAAAAAAAAAAAAAAAAAAAAAAAAAAAAAAAAAAAAAAAAAAAAAAAAAAAAAAAAAAAAAAAAAAAAAAAAAAAAAAAAAAAAAAAAAAAAAAAAAAAAAAAAAAAAAAAAAAAAAAAAAAAAAAAAAAAAAAAAAAAAAAAAAAAAAAAAAAAAAAAAAAAAAAAAAAAAAAAAAAAAAAAAAAAAAAAAAAAAAAAAAAAAAAAAAAAAAAAAAAAAAAAAAAAAAAAAAAAAAAAAAAAAAAAAAAAAAAAAAAAAAAAAAAAAAAAAAAAAAAAAAAAAAAAAAAAAAAAAAAAAAAAAAAAAAAAAAAAAAAAAAAAAAAAAAAAAAAAAAAAAAAAAAAAAAAAAAAAAAAAAAAAAAAAAAAAAAAAAAAAAAAAAAAAAAAAAAAAAAAAAAAAAAAAAAAAAAAAAAAAAAAAAAAAAAAAAAAAAAAAAAAAAAAAAAAAAAAAAAAAAAAAAAAAAAAAAAAAAAAAAAAAAAAAAAAAAAAAAAAAAAAAAAAAAAAAAAAAAAAAAAAAAAAAAAAAAAAAAAAAAAAAAAAAAAAAAAAAAAAAAAAAAAAAAAAAAAAAAAAAAAAAAAAAAAAAAAAAAAAAAAAAAAAAAAAAAAAAAAAAAAAAAAAAAAAAAAAAAAAAAAAAAAAAAAAAAAAAAAAAAAAAAAAAAAAAAAAAAAAAAAAAAAAAAAAAAAAAAAAAAAAAAAAAAAAAAAAAAAAAAAAAAAAAAAAAAAAAAAAAAAAAAAAAAAAAAAAAAAAAAAAAAAAAAAAAAAAAAAAAAAAAAAAAAAAAAAAAAAAAAAAAAAAAAAAAAAAAAAAAAAAAAAAAAAAAAAAAAAAAAAAAAAAAAAAAAAAAAAAAAAAAAAAAAAAAAAAAAAAAAAAAAAAAAAAAAAAAAAAAAAAAAAAAAAAAAAAAAAAAAAAAAAAAAAAAAAAAAAAAAAAAAAAAAAAAAAAAAAAAAAAAAAAAAAAAAAAAAAAAAAAAAAAAAAAAAAAAAAAAAAAAAAAAAAAAAAAAAAAAAAAAAAAAAAAAAAAAAAAAAAAAAAAAAAAAAAAAAAAAAAAAAAAAAAAAAAAAAAAAAAAAAAAAAAAAAAAAAAAAAAAAAAAAAAAAAAAAAAAAAAAAAAAAAAAAAAAAAAAAAAAAAAAAAAAAAAAAAAAAAAAAAAAAAAAAAAAAAAAAAAAAAAAAAAAAAAAAAAAAAAAAAAAAAAAAAAAAAAAAAAAAAAAAAAAAAAAAAAAAAAAAAAAAAAAAAAAAAAAAAAAAAAAAAAAAAAAAAAAAAAAAAAAAAAAAAAAAAAAAAAAAAAAAAAAAAAAAAAAAAAAAAAAAAAAAAAAAAAAAAAAAAAAAAAAAAAAAAAAAAAAAAAAAAAAAAAAAAAAAAAAAAAAAAAAAAAAAAAAAAAAAAAAAAAAAAAAAAAAAAAAAAAAAAAAAAAAAAAAAAAAAAAAAAAAAAAAAAAAAAAAAAAAAAAAAAAAAAAAAAAAAAAAAAAAAAAAAAAAAAAAAAAAAAAAAAAAAAAAAAAAAAAAAAAAAAAAAAAAAAAAAAAAAAAAAAAAAAAAAAAAAAAAAAAAAAAAAAAAAAAAAAAAAAAAAAAAAAAAAAAAAAAAAAAAAAAAAAAAAAAAAAAAAAAAAAAAAAAAAAAAAAAAAAAAAAAAAAAAAAAAAAAAAAAAAAAAAAAAAAAAAAAAAAAAAAAAAAAAAAAAAAAAAAAAAAAAAAAAAAAAAAAAAAAAAAAAAAAAAAAAAAAAAAAAAAAAAAAAAAAAAAAAAAAAAAAAAAAAAAAAAAAAAAAAAAAAAAAAAAAAAAAAAAAAAAAAAAAAAAAAAAAAAAAAAAAAAAAAAAAAAAAAAAAAAAAAAAAAAAAAAAAAAAAAAAAAAAAAAAAAAAAAAAAAAAAAAAAAAAAAAAAAAAAAAAAAAAAAAAAAAAAAAAAAAAAAAAAAAAAAAAAAAAAAAAAAAAAAAAAAAAAAAAAAAAAAAAAAAAAAAAAAAAAAAAAAAAAAAAAAAAAAAAAAAAAAAAAAAAAAAAAAAAAAAAAAAAAAAAAAAAAAAAAAAAAAAAAAAAAAAAAAAAAAAAAAAAAAAAAAAAAAAAAAAAAAAAAAAAAAAAAAAAAAAAAAAAAAAAAAAAAAAAAAAAAAAAAAAAAAAAAAAAAAAAAAAAAAAAAAAAAAAAAAAAAAAAAAAAAAAAAAAAAAAAAAAAAAAAAAAAAAAAAAAAAAAAAAAAAAAAAAAAAAAAAAAAAAAAAAAAAAAAAAAAAAAAAAAAAAAAAAAAAAAAAAAAAAAAAAAAAAAAAAAAAAAAAAAAAAAAAAAAAAAAAAAAAAAAAAAAAAAAAAAAAAAAAAAAAAAAAAAAAAAAAAAAAAAAAAAAAAAAAAAAAAAAAAAAAAAAAAAAAAAAAAAAAAAAAAAAAAAAAAAAAAAAAAAAAAAAAAAAAAAAAAAAAAAAAAAAAAAAAAAAAAAAAAAAAAAAAAAAAAAAAAAAAAAAAAAAAAAAAAAAAAAAAAAAAAAAAAAAAAAAAAAAAAAAAAAAAAAAAAAAAAAAAAAAAAAAAAAAAAAAAAAAAAAAAAAAAAAAAAAAAAAAAAAAAAAAAAAAAAAAAAAAAAAAAAAAAAAAAAAAAAAAAAAAAAAAAAAAAAAAAAAAAAAAAAAAAAAAAAAAAAAAAAAAAAAAAAAAAAAAAAAAAAAAAAAAAAAAAAAAAAAAAAAAAAAAAAAAAAAAAAAAAAAAAAAAAAAAAAAAAAAAAAAAAAAAAAAAAAAAAAAAAAAAAAAAAAAAAAAAAAAAAAAAAAAAAAAAAAAAAAAAAAAAAAAAAAAAAAAAAAAAAAAAAAAAAAAAAAAAAAAAAAAAAAAAAAAAAAAAAAAAAAAAAAAAAAAAAAAAAAAAAAAAAAAAAAAAAAAAAAAAAAAAAAAAAAAAAAAAAAAAAAAAAAAAAAAAAAAAAAAAAAAAAAAAAAAAAAAAAAAAAAAAAAAAAAAAAAAAAAAAAAAAAAAAAAAAAAAAAAAAAAAAAAAAAAAAAAAAAAAAAAAAAAAAAAAAAAAAAAAAAAAAAAAAAAAAAAAAAAAAAAAAAAAAAAAAAAAAAAAAAAAAAAAAAAAAAAAAAAAAAAAAAAAAAAAAAAAAAAAAAAAAAAAAAAAAAAAAAAAAAAAAAAAAAAAAAAAAAAAAAAAAAAAAAAAAAAAAAAAAAAAAAAAAAAAAAAAAAAAAAAAAAAAAAAAAAAAAAAAAAAAAAAAAAAAAAAAAAAAAAAAAAAAAAAAAAAAAAAAAAAAAAAAAAAAAAAPZYQCrTVIwPUH/bSB/zGZHPnn2xcyi79cqHuvtPpLiJgBI9jg3pnlQbbJoMaUJ/ETfKzVAIECbkP9kYAyMdq5zjL7Y=</c2pa:manifest></metadata>
  <title id="t">Arenos horizontal lockup</title>
  <desc>Mark and outlined wordmark, horizontal lockup.</desc>
  <path fill="#F6F4F4" fill-rule="evenodd" d="M207.72 61.387A105.5 105.5 0 0 1 207.72 178.613L198.574 172.501A94.5 94.5 0 0 0 198.574 67.499ZM178.613 207.72A105.5 105.5 0 0 1 61.387 207.72L67.499 198.574A94.5 94.5 0 0 0 172.501 198.574ZM32.28 178.613A105.5 105.5 0 0 1 32.28 61.387L41.426 67.499A94.5 94.5 0 0 0 41.426 172.501ZM61.387 32.28A105.5 105.5 0 0 1 178.613 32.28L172.501 41.426A94.5 94.5 0 0 0 67.499 41.426Z"></path>
  <path fill="#707070" fill-rule="evenodd" d="M56.7 120A63.3 63.3 0 1 0 183.3 120A63.3 63.3 0 1 0 56.7 120ZM59.7 120A60.3 60.3 0 1 0 180.3 120A60.3 60.3 0 1 0 59.7 120Z"></path>
  <path fill="#707070" fill-rule="evenodd" d="M80.3 120A39.7 39.7 0 1 0 159.7 120A39.7 39.7 0 1 0 80.3 120ZM83.3 120A36.7 36.7 0 1 0 156.7 120A36.7 36.7 0 1 0 83.3 120Z"></path>
  <path fill="#D4881A" fill-rule="evenodd" d="M96.4 120A23.6 23.6 0 1 0 143.6 120A23.6 23.6 0 1 0 96.4 120Z"></path>
  <path fill="#F6F4F4" fill-rule="evenodd" d="M301.916 152.132Q292.636 152.132 287.068 147.666Q281.5 143.2 281.5 135.544Q281.5 127.888 286.372 123.48Q291.244 119.072 300.64 117.332L323.376 113.04Q323.376 103.876 319.432 99.526Q315.488 95.176 307.484 95.176Q300.408 95.176 296.232 98.54Q292.056 101.904 290.664 108.052L282.544 107.356Q284.284 98.424 290.722 93.146Q297.16 87.868 307.484 87.868Q318.968 87.868 325 94.364Q331.032 100.86 331.032 112.924V138.56Q331.032 141.692 332.018 142.794Q333.004 143.896 335.208 143.896H337.064V150.74Q336.6 150.856 335.73 150.914Q334.86 150.972 333.932 150.972Q330.336 150.972 327.958 149.696Q325.58 148.42 324.478 145.52Q323.376 142.62 323.376 137.516L324.304 137.632Q323.26 141.692 320.07 144.998Q316.88 148.304 312.124 150.218Q307.368 152.132 301.916 152.132ZM302.612 145.288Q308.992 145.288 313.632 142.736Q318.272 140.184 320.824 135.834Q323.376 131.484 323.376 126.032V119.884L302.264 123.828Q295.652 125.104 292.578 127.772Q289.504 130.44 289.504 134.848Q289.504 139.836 292.984 142.562Q296.464 145.288 302.612 145.288ZM388.568 150.74V89.26H395.18L395.644 106.08L394.6 105.5Q396.108 97.264 400.052 93.262Q403.996 89.26 410.956 89.26H416.292V96.684H410.724Q406.084 96.684 402.836 98.714Q399.588 100.744 397.906 104.456Q396.224 108.168 396.224 113.272V150.74ZM494.128 152.132Q485.312 152.132 479.164 148.014Q473.016 143.896 469.71 136.646Q466.404 129.396 466.404 120Q466.404 110.604 469.652 103.354Q472.9 96.104 478.99 91.986Q485.08 87.868 493.664 87.868Q501.9 87.868 507.932 91.812Q513.964 95.756 517.154 102.948Q520.344 110.14 520.344 119.768V122.204H474.408Q474.872 133.108 480.092 138.966Q485.312 144.824 494.128 144.824Q500.856 144.824 505.148 141.576Q509.44 138.328 511.064 132.992L519.3 133.572Q516.98 141.692 510.368 146.912Q503.756 152.132 494.128 152.132ZM474.408 115.36H511.992Q511.412 105.5 506.54 100.338Q501.668 95.176 493.664 95.176Q485.66 95.176 480.556 100.396Q475.452 105.616 474.408 115.36ZM574.632 150.74V89.26H581.592L581.94 105.384L581.012 104.688Q581.94 99.004 584.898 95.292Q587.856 91.58 592.148 89.724Q596.44 87.868 601.428 87.868Q608.504 87.868 613.086 91Q617.668 94.132 619.872 99.41Q622.076 104.688 622.076 111.184V150.74H614.42V113.968Q614.42 107.936 612.97 103.644Q611.52 99.352 608.272 97.032Q605.024 94.712 599.804 94.712Q591.916 94.712 587.102 99.816Q582.288 104.92 582.288 113.968V150.74ZM703.856 152.132Q695.504 152.132 689.298 148.188Q683.092 144.244 679.728 136.994Q676.364 129.744 676.364 120Q676.364 110.14 679.728 102.948Q683.092 95.756 689.298 91.812Q695.504 87.868 703.856 87.868Q712.208 87.868 718.356 91.812Q724.504 95.756 727.868 102.948Q731.232 110.14 731.232 120Q731.232 129.744 727.868 136.994Q724.504 144.244 718.356 148.188Q712.208 152.132 703.856 152.132ZM703.856 144.824Q712.904 144.824 718.066 138.154Q723.228 131.484 723.228 120Q723.228 108.516 718.066 101.846Q712.904 95.176 703.856 95.176Q694.808 95.176 689.588 101.846Q684.368 108.516 684.368 120Q684.368 131.484 689.588 138.154Q694.808 144.824 703.856 144.824ZM807.328 152.132Q799.092 152.132 793.466 149.522Q787.84 146.912 784.824 142.272Q781.808 137.632 781.344 131.832L789.348 131.252Q790.044 137.4 794.336 141.112Q798.628 144.824 807.328 144.824Q814.636 144.824 818.464 142.388Q822.292 139.952 822.292 134.848Q822.292 132.064 821.132 130.15Q819.972 128.236 816.376 126.786Q812.78 125.336 805.588 124.06Q797.004 122.436 792.306 120.116Q787.608 117.796 785.81 114.432Q784.012 111.068 784.012 106.312Q784.012 98.076 789.986 92.972Q795.96 87.868 806.516 87.868Q814.404 87.868 819.45 90.594Q824.496 93.32 827.106 97.728Q829.716 102.136 830.412 107.124L822.408 107.82Q822.06 104.456 820.378 101.614Q818.696 98.772 815.332 96.974Q811.968 95.176 806.284 95.176Q799.324 95.176 795.67 98.134Q792.016 101.092 792.016 105.964Q792.016 109.328 793.292 111.474Q794.568 113.62 797.932 114.954Q801.296 116.288 807.444 117.332Q816.376 118.724 821.364 120.986Q826.352 123.248 828.382 126.612Q830.412 129.976 830.412 134.732Q830.412 143.084 824.09 147.608Q817.768 152.132 807.328 152.132Z"></path>
</svg>